# xmcd CD database file
# Generated: Sat Jan 10 20:21:37 2004 by KSCD
# 
# Track frame offsets:
#       150
#       23337
#       48935
#       66974
#       80740
#       103186
#       126180
#       144182
#       161420
#       181695
#
# Disc length: 2772 seconds
#
# Revision: 1
# Processed by: cddbd v1.4PL0 Copyright (c) Steve Scherf et al.
# Submitted via: Kscd 1.3.3
#
DISCID=780ad20a
DTITLE=Mishi Donovan - The Spirit Within
DYEAR=1900
DGENRE=
TTITLE0=Letting Go
TTITLE1=Forgotten Yesterday
TTITLE2=Ne'Ya
TTITLE3=Shadow Dancer
TTITLE4=First Nations
TTITLE5=Vison Quest
TTITLE6=Go on and Run
TTITLE7=Bartender's Song
TTITLE8=As Seen Through a Child's Eyes
TTITLE9=Does it Take Death
EXTD=Janusz
EXTT0=
EXTT1=
EXTT2=
EXTT3=
EXTT4=
EXTT5=
EXTT6=
EXTT7=
EXTT8=
EXTT9=
PLAYORDER=
